<?xml version="1.0" encoding="utf-8"?>
<!-- Generator: Adobe Illustrator 27.5.0, SVG Export Plug-In . SVG Version: 6.00 Build 0)  -->
<svg version="1.1" id="Layer_1" xmlns="http://www.w3.org/2000/svg" xmlns:xlink="http://www.w3.org/1999/xlink" x="0px" y="0px"
	 viewBox="0 0 415.917 165.084" style="enable-background:new 0 0 415.917 165.084;" xml:space="preserve">
<g>
	<g>
		<path style="fill:#231F20;" d="M405.34,84.168V61.9c0,0-0.29-4.429-8.54-6.172c-8.25-1.742-51.317-12.453-51.317-12.453
			s-43.66-32.699-58.441-36.538c-14.783-3.839-41.767-4.586-49.816-4.151c0,0-48.83-0.132-65.858,6.465
			c-17.03,6.596-47.325,39.222-58.817,43.045c-11.49,3.823-79.152,18.396-88.884,24.771c0,0-7.569,3.351-9.452,9.15
			c-1.883,5.798-3.228,16.751-3.228,16.751s-3.899,2.785-4.672,4.679c-0.775,1.895,4.672,23.098,4.672,23.098
			s0.756,3.169,2.894,3.163c0.391-0.002,12.241-0.002,31.347-0.002c0.358-4.487,1.75-16.821,6.65-25.903
			c6.095-11.296,21.781-11.766,29.763-11.551c22.507,0.603,25.557,8.05,29.084,15.724c2.416,5.252,3.565,15.676,4.051,21.728
			c56.851,0.001,126.415,0.002,177.186,0.002c0.36-4.486,1.752-16.82,6.651-25.903c6.095-11.296,21.782-11.766,29.765-11.551
			c22.505,0.603,25.557,8.05,29.083,15.724c2.415,5.254,3.565,15.68,4.05,21.732c0.066,0,0.103,0,0.103,0l42.851-17.33
			c0,0,1.739-1.277,2.743-4.175c1.002-2.896,2.469-16.797,2.469-16.797L405.34,84.168z"/>
		<g>
			<linearGradient id="SVGID_1_" gradientUnits="userSpaceOnUse" x1="363.437" y1="95.7232" x2="409.6767" y2="95.7232">
				<stop  offset="0" style="stop-color:#FFFFFF"/>
				<stop  offset="0.0795" style="stop-color:#DCDBDC"/>
				<stop  offset="0.2044" style="stop-color:#ABAAAA"/>
				<stop  offset="0.3325" style="stop-color:#827F80"/>
				<stop  offset="0.4614" style="stop-color:#5F5C5D"/>
				<stop  offset="0.5916" style="stop-color:#454142"/>
				<stop  offset="0.7234" style="stop-color:#322E2F"/>
				<stop  offset="0.8579" style="stop-color:#272324"/>
				<stop  offset="0.9993" style="stop-color:#231F20"/>
			</linearGradient>
			<polygon style="opacity:0.4;fill:url(#SVGID_1_);" points="363.437,107.278 409.677,95.405 405.34,84.168 			"/>
			<g>
				<path style="fill:#231F20;" d="M81.641,96.251c-7.982-0.215-23.669,0.255-29.763,11.551c-4.899,9.082-6.292,21.416-6.65,25.903
					c17.939-0.001,42.282-0.002,69.548-0.002c-0.485-6.053-1.635-16.476-4.051-21.728C107.198,104.301,104.147,96.854,81.641,96.251
					z"/>
				<path style="fill:#231F20;" d="M328.378,96.251c-7.983-0.215-23.67,0.255-29.765,11.551c-4.899,9.083-6.292,21.417-6.651,25.903
					c39.558,0.001,67.706,0.002,69.55,0.002c-0.485-6.053-1.635-16.479-4.05-21.732C353.935,104.301,350.884,96.854,328.378,96.251z
					"/>
			</g>
			<g>
				<path style="fill:#231F20;" d="M405.34,84.168V61.9c0,0-0.29-4.429-8.54-6.172c-8.25-1.742-51.317-12.453-51.317-12.453
					s47.697,13.38,51.171,13.741c3.476,0.363,4.431,3.027,4.431,3.027s-21.98,0.261-25.108,1.65
					c-3.128,1.391-1.824,3.041-1.824,3.041s4.17,6.256,5.994,8.515c1.825,2.259,4.778,2.606,4.778,2.606l16.247,4.258l0.087,6.343
					l4.081,9.76l-41.441,10.918l42.4-9.036c0,0-0.608,8.861-0.959,12.077c-0.349,3.215-4.427,5.188-4.427,5.188l-38.056,15.713
					c0,0-0.521-10.388-4.17-21.075c-3.649-10.685-14.423-13.292-22.416-14.277c-7.993-0.985-21.374-1.621-31.974,4.026
					c-10.6,5.647-13.03,27.963-13.03,27.963c-1.3-0.591-1.478-2.372-1.478-2.372c0.693-14.026,8.95-26.024,8.95-26.024
					c-10.079,7.384-12.86,31.45-12.86,31.45h-163.25c-3.734,0.174-6.519,1.577-6.519,1.577s0.349-13.393-6.168-25.644
					c-6.517-12.25-29.019-12.077-33.016-12.065c-3.996,0.011-14.683,0.423-22.937,8.048c-8.254,7.623-10.338,28.693-10.338,28.693
					s-14.944,0.173-16.876,0c-1.933-0.172-0.585-1.392-0.585-1.392s1.997-4.083,3.041-7.195c1.042-3.11-0.399-3.603-0.399-3.603
					s-9.767-9.794-11.115-11.415c-1.347-1.624-4.651-0.549-4.651-0.549s-5.642,1.997-5.95,1.461c-0.307-0.535,0.308,0.536,0-0.912
					c-0.307-1.449,4.478-4.591,4.478-4.591l15.829-1.756l-14.952,0.534v-4.208c0,0,10.418-2.171,13.053-2.656
					c2.637-0.483,9.354-6.641,11.352-8.878c1.999-2.235,2.912-4.67,2.912-4.67c-0.042-3.521-4.562-2.91-4.562-2.91l-17.018,2.91
					c0.371-0.804,4.205-3.67,6.17-5.102c-0.264,0.144-0.499,0.285-0.708,0.421c0,0-7.569,3.351-9.452,9.15
					c-1.883,5.798-3.228,16.751-3.228,16.751s-3.899,2.785-4.672,4.679c-0.775,1.895,4.672,23.098,4.672,23.098
					s0.756,3.169,2.894,3.163c0.391-0.002,12.241-0.002,31.347-0.002c0.358-4.487,1.75-16.821,6.65-25.903
					c6.095-11.296,21.781-11.766,29.763-11.551c22.507,0.603,25.557,8.05,29.084,15.724c2.416,5.252,3.565,15.676,4.051,21.728
					c56.851,0.001,126.415,0.002,177.186,0.002c0.36-4.486,1.752-16.82,6.651-25.903c6.095-11.296,21.782-11.766,29.765-11.551
					c22.505,0.603,25.557,8.05,29.083,15.724c2.415,5.254,3.565,15.68,4.05,21.732c0.066,0,0.103,0,0.103,0l42.851-17.33
					c0,0,1.739-1.277,2.743-4.175c1.002-2.896,2.469-16.797,2.469-16.797L405.34,84.168z"/>
			</g>
			<g>
				<path style="fill:#262628;" d="M81.641,96.251c-7.982-0.215-23.669,0.255-29.763,11.551c-4.899,9.082-6.292,21.416-6.65,25.903
					c17.939-0.001,42.282-0.002,69.548-0.002c-0.485-6.053-1.635-16.476-4.051-21.728C107.198,104.301,104.147,96.854,81.641,96.251
					z"/>
				<path style="fill:#262628;" d="M328.378,96.251c-7.983-0.215-23.67,0.255-29.765,11.551c-4.899,9.083-6.292,21.417-6.651,25.903
					c39.558,0.001,67.706,0.002,69.55,0.002c-0.485-6.053-1.635-16.479-4.05-21.732C353.935,104.301,350.884,96.854,328.378,96.251z
					"/>
			</g>
			<path style="opacity:0.4;fill:#2F3740;" d="M114.457,53.297c-0.549-0.332-0.981-0.789-1.322-1.295
				c-0.118,0.032-0.237,0.068-0.354,0.104c0.345,0.53,0.783,1.019,1.343,1.392c-0.595,0.882-4.011,5.588-10.274,7.859
				c-2.789,1.012-14.6,2.855-28.272,4.992c-17.136,2.677-37.753,5.896-48.241,8.671c-0.295,0.191-0.587,0.391-0.875,0.597
				c10.098-2.823,31.487-6.163,49.168-8.925c13.692-2.14,25.516-3.986,28.336-5.009c7.006-2.539,10.513-8.09,10.547-8.146
				l0.093-0.149L114.457,53.297z"/>
			<path style="fill:#414142;" d="M7.362,109.932c0,0-0.421,0.483-0.17,1.867c0.251,1.383,4.311,17.267,4.311,17.267
				s0.672,2.269,3.117,2.332h6.439c0,0,3.13-0.162,4.344-2.482c1.218-2.319,2.26-6.309,2.26-6.309s1.129-1.626-1.65-4.597
				c-2.781-2.97-9.471-9.618-9.471-9.618s-0.678-1.085-3.38-0.39C10.461,108.698,7.362,109.932,7.362,109.932z"/>
			<path style="fill:#111112;" d="M9.209,111.38c0,0-0.375,0.431-0.152,1.657c0.224,1.227,3.825,15.316,3.825,15.316
				s0.597,2.014,2.764,2.069h5.714c0,0,2.775-0.145,3.854-2.202c1.08-2.058,2.004-5.596,2.004-5.596s1.002-1.442-1.465-4.078
				c-2.464-2.634-8.402-8.532-8.402-8.532s-0.599-0.961-2.997-0.345C11.958,110.287,9.209,111.38,9.209,111.38z"/>
			<path style="fill:#353536;" d="M11.215,112.627c0,0-0.318,0.367-0.13,1.416c0.191,1.048,3.268,13.087,3.268,13.087
				s0.509,1.72,2.362,1.768h4.882c0,0,2.37-0.124,3.291-1.882c0.921-1.757,1.713-4.781,1.713-4.781s0.857-1.231-1.25-3.483
				c-2.107-2.252-7.178-7.29-7.178-7.29s-0.514-0.821-2.562-0.295C13.563,111.693,11.215,112.627,11.215,112.627z"/>
			<g>
				<path style="fill:#373736;" d="M300.417,15.415c7.182,4.519,37.997,27.455,37.997,27.455s4.055,2.548,7.069,0.405
					c0,0-37.942-28.416-55.059-35.375C290.499,7.981,293.333,10.959,300.417,15.415z"/>
			</g>
			
				<linearGradient id="SVGID_00000056402837681540967700000009856528686836919426_" gradientUnits="userSpaceOnUse" x1="7.1123" y1="103.4512" x2="49.2968" y2="103.4512">
				<stop  offset="0" style="stop-color:#FFFFFF"/>
				<stop  offset="0.0795" style="stop-color:#DCDBDC"/>
				<stop  offset="0.2044" style="stop-color:#ABAAAA"/>
				<stop  offset="0.3325" style="stop-color:#827F80"/>
				<stop  offset="0.4614" style="stop-color:#5F5C5D"/>
				<stop  offset="0.5916" style="stop-color:#454142"/>
				<stop  offset="0.7234" style="stop-color:#322E2F"/>
				<stop  offset="0.8579" style="stop-color:#272324"/>
				<stop  offset="0.9993" style="stop-color:#231F20"/>
			</linearGradient>
			<path style="opacity:0.4;fill:url(#SVGID_00000056402837681540967700000009856528686836919426_);" d="M11.552,102.993
				c0,0-3.321,2.374-4.44,4.229l42.184-7.543L11.552,102.993z"/>
			<path style="fill:#373736;" d="M123.093,49.837c5.551-3.689,35.475-29.883,40.444-36.645
				c-16.657,10.601-39.338,33.801-49.826,38.448v0.001C113.711,51.642,117.231,53.733,123.093,49.837z"/>
			<path style="fill:#231F20;" d="M81.811,91.594c-8.865-0.237-26.287,0.283-33.054,12.829c-5.642,10.458-7.099,24.797-7.426,29.282
				c1.264,0,2.56,0,3.897,0c0.358-4.487,1.75-16.821,6.65-25.903c6.095-11.296,21.781-11.766,29.763-11.551
				c22.507,0.603,25.557,8.05,29.084,15.724c2.416,5.252,3.565,15.676,4.051,21.728c1.284,0,2.578,0,3.876,0
				c-0.513-6.63-1.789-18.661-4.539-24.647C110.197,100.535,106.807,92.264,81.811,91.594z"/>
			
				<linearGradient id="SVGID_00000092418236541947028540000007959704778401638047_" gradientUnits="userSpaceOnUse" x1="41.3305" y1="112.6307" x2="118.6518" y2="112.6307">
				<stop  offset="0" style="stop-color:#FFFFFF"/>
				<stop  offset="0.0795" style="stop-color:#DCDBDC"/>
				<stop  offset="0.2044" style="stop-color:#ABAAAA"/>
				<stop  offset="0.3325" style="stop-color:#827F80"/>
				<stop  offset="0.4614" style="stop-color:#5F5C5D"/>
				<stop  offset="0.5916" style="stop-color:#454142"/>
				<stop  offset="0.7234" style="stop-color:#322E2F"/>
				<stop  offset="0.8579" style="stop-color:#272324"/>
				<stop  offset="0.9993" style="stop-color:#231F20"/>
			</linearGradient>
			<path style="opacity:0.4;fill:url(#SVGID_00000092418236541947028540000007959704778401638047_);" d="M81.811,91.594
				c-8.865-0.237-26.287,0.283-33.054,12.829c-5.642,10.458-7.099,24.797-7.426,29.282c1.264,0,2.56,0,3.897,0
				c0.358-4.487,1.75-16.821,6.65-25.903c6.095-11.296,21.781-11.766,29.763-11.551c22.507,0.603,25.557,8.05,29.084,15.724
				c2.416,5.252,3.565,15.676,4.051,21.728c1.284,0,2.578,0,3.876,0c-0.513-6.63-1.789-18.661-4.539-24.647
				C110.197,100.535,106.807,92.264,81.811,91.594z"/>
			<path style="fill:#231F20;" d="M328.466,91.181c-8.94-0.238-26.518,0.288-33.346,12.943c-5.708,10.582-7.169,25.104-7.493,29.581
				c1.457,0,2.906,0,4.335,0c0.36-4.486,1.752-16.82,6.651-25.903c6.095-11.296,21.782-11.766,29.765-11.551
				c22.505,0.603,25.557,8.05,29.083,15.724c2.415,5.254,3.565,15.68,4.05,21.732c0.066,0,0.103,0,0.103,0l3.893-1.575
				c-0.587-6.88-1.879-17.73-4.456-23.334C357.1,100.202,353.684,91.857,328.466,91.181z"/>
			
				<linearGradient id="SVGID_00000114036275464878577570000001384566468432110480_" gradientUnits="userSpaceOnUse" x1="287.6269" y1="112.4251" x2="365.5073" y2="112.4251">
				<stop  offset="0" style="stop-color:#FFFFFF"/>
				<stop  offset="0.0795" style="stop-color:#DCDBDC"/>
				<stop  offset="0.2044" style="stop-color:#ABAAAA"/>
				<stop  offset="0.3325" style="stop-color:#827F80"/>
				<stop  offset="0.4614" style="stop-color:#5F5C5D"/>
				<stop  offset="0.5916" style="stop-color:#454142"/>
				<stop  offset="0.7234" style="stop-color:#322E2F"/>
				<stop  offset="0.8579" style="stop-color:#272324"/>
				<stop  offset="0.9993" style="stop-color:#231F20"/>
			</linearGradient>
			<path style="opacity:0.4;fill:url(#SVGID_00000114036275464878577570000001384566468432110480_);" d="M328.466,91.181
				c-8.94-0.238-26.518,0.288-33.346,12.943c-5.708,10.582-7.169,25.104-7.493,29.581c1.457,0,2.906,0,4.335,0
				c0.36-4.486,1.752-16.82,6.651-25.903c6.095-11.296,21.782-11.766,29.765-11.551c22.505,0.603,25.557,8.05,29.083,15.724
				c2.415,5.254,3.565,15.68,4.05,21.732c0.066,0,0.103,0,0.103,0l3.893-1.575c-0.587-6.88-1.879-17.73-4.456-23.334
				C357.1,100.202,353.684,91.857,328.466,91.181z"/>
			<g>
				<path style="fill:#4A4B4C;" d="M17.702,82.63c0,0-1.4,0.104-2.023,1.453c-0.622,1.35-3.212,10.946-3.212,12.191
					c0,1.243,13.108-2.286,14.504-2.933c5.741-2.659,11.582-10.445,11.582-10.619c0-0.174,1.752-3.182-2.821-3.317
					C31.157,79.271,17.702,82.63,17.702,82.63z"/>
				<path style="fill:#111112;" d="M21.406,82.879c0,0-1.072,0.079-1.548,1.111c-0.476,1.033-2.459,8.377-2.459,9.329
					c0,0.953,10.031-1.748,11.1-2.243c4.393-2.035,8.864-7.993,8.864-8.126c0-0.134,1.339-2.436-2.162-2.54
					C31.701,80.308,21.406,82.879,21.406,82.879z"/>
				<path style="opacity:0.2;fill:#F6F6F6;" d="M32.737,80.408c0,0-15.249,2.336-16.158,3.569c-0.91,1.232-3.05,10.448-3.05,10.448
					s9.15-4.283,13.303-8.112c4.153-3.828,6.165-5.905,6.165-5.905H32.737z"/>
				<path style="opacity:0.8;fill:#F6F6F6;" d="M20.883,84.145c2.298-1.214,4.808-2.193,7.301-2.91
					c0.216-0.063,0.43-0.125,0.645-0.188c-4.583,0.781-11.64,2.104-12.25,2.932c-0.731,0.991-2.255,7.133-2.827,9.509
					C15.428,89.766,17.041,86.172,20.883,84.145z"/>
			</g>
			<g>
				<path style="fill:#B51B1C;" d="M379.19,63.375c0,0-2.315,0.578-2.2,1.853c0.116,1.275,5.907,7.066,5.907,7.066
					s0.695,0.587,2.897,1.51c2.202,0.923,16.684,5.093,16.684,5.093s1.608,0.334,2.862,0.127V61.9c0,0-0.013-0.211-0.121-0.561l0,0
					C405.219,61.34,388.46,61.521,379.19,63.375z"/>
				<path style="fill:#880C09;" d="M379.19,63.375c0,0-2.315,0.578-2.2,1.853c0.116,1.275,5.907,7.066,5.907,7.066
					s0.695,0.587,2.897,1.51c2.202,0.923,16.684,5.093,16.684,5.093s1.608,0.334,2.862,0.127V61.9c0,0-0.013-0.211-0.121-0.561l0,0
					C405.219,61.34,388.46,61.521,379.19,63.375z"/>
				<path style="fill:#B51B1C;" d="M380.266,64.268c0,0-2.169,0.47-2.06,1.502c0.11,1.032,5.526,5.727,5.526,5.727
					s0.652,0.475,2.711,1.223c2.06,0.748,15.611,4.127,15.611,4.127s1.506,0.269,2.679,0.102V63.073c0,0-0.012-0.17-0.114-0.453l0,0
					C404.62,62.62,388.937,62.766,380.266,64.268z"/>
				<path style="fill:#B51B1C;" d="M380.467,67.429c0,0-2.723-2.026,0-2.549c2.721-0.521,21.952-1.737,23.689-1.563v9.558
					c0,0-0.521-4.865-4.054-5.562C396.568,66.618,380.467,67.429,380.467,67.429z"/>
				<path style="opacity:0.4;fill:#B75526;" d="M386.556,72.004c-2.364-0.462-4.41-3.243-4.41-3.243s2.142,1.506,5.213,2.143
					c3.069,0.639,16.797,2.724,16.797,2.724v2.851L386.556,72.004z"/>
			</g>
			<g>
				<path style="fill:#B6B7B9;" d="M291.962,135.111c0,1.528-6.065,2.769-7.541,2.769H122.759c-1.478,0-7.83-1.24-7.83-2.769l0,0
					c0-1.529,6.353-2.768,7.83-2.768h161.662C285.897,132.344,291.962,133.582,291.962,135.111L291.962,135.111z"/>
				<path style="opacity:0.5;fill:#B6B7B9;" d="M114.935,135.061c0,0.017-0.006,0.033-0.006,0.05c0,1.528,6.353,2.769,7.83,2.769
					h161.662c1.476,0,7.541-1.24,7.541-2.769c0-0.017-0.004-0.033-0.006-0.05H114.935z"/>
			</g>
			<g>
				<path d="M15.955,111.087l4.255,17.811h1.387c0,0,0.134-0.008,0.349-0.041l-4.233-17.719
					C17.38,111.003,16.829,110.911,15.955,111.087z"/>
				<path d="M11.215,112.627c0,0-0.318,0.367-0.13,1.416c0.191,1.048,3.268,13.087,3.268,13.087s0.299,0.998,1.262,1.494
					l-3.869-16.2C11.416,112.547,11.215,112.627,11.215,112.627z"/>
				<path d="M19.549,112.835l3.731,15.624c0.451-0.206,0.91-0.506,1.271-0.946l-3.031-12.699
					C20.799,114.088,20.112,113.398,19.549,112.835z"/>
				<path d="M13.062,111.948l4.047,16.949h1.673l-4.17-17.451C14.07,111.609,13.538,111.784,13.062,111.948z"/>
				<path d="M26.601,122.234c0,0,0.857-1.231-1.25-3.483c-0.512-0.547-1.199-1.258-1.946-2.021l2.116,8.857
					C26.144,123.979,26.601,122.234,26.601,122.234z"/>
				<path style="fill:#313132;" d="M11.746,112.424l3.869,16.2c0.301,0.155,0.663,0.262,1.101,0.274h0.394l-4.047-16.949
					C12.532,112.131,12.073,112.299,11.746,112.424z"/>
				<path style="fill:#313132;" d="M15.61,111.166c-0.33,0.085-0.665,0.181-0.998,0.28l4.17,17.451h1.429l-4.255-17.811
					C15.845,111.109,15.731,111.134,15.61,111.166z"/>
				<path style="fill:#313132;" d="M18.172,111.461c0,0-0.118-0.184-0.458-0.323l4.233,17.719c0.32-0.05,0.816-0.162,1.333-0.397
					l-3.731-15.624C18.73,112.015,18.172,111.461,18.172,111.461z"/>
				<path style="fill:#313132;" d="M25.521,125.587l-2.116-8.857c-0.61-0.624-1.26-1.283-1.885-1.916l3.031,12.699
					c0.125-0.149,0.242-0.313,0.337-0.497C25.109,126.594,25.324,126.097,25.521,125.587z"/>
			</g>
			
				<linearGradient id="SVGID_00000071539903995565109150000004449284773554657191_" gradientUnits="userSpaceOnUse" x1="80.5612" y1="38.0976" x2="80.5612" y2="144.4381">
				<stop  offset="0" style="stop-color:#FFFFFF"/>
				<stop  offset="0.0795" style="stop-color:#DCDBDC"/>
				<stop  offset="0.2044" style="stop-color:#ABAAAA"/>
				<stop  offset="0.3325" style="stop-color:#827F80"/>
				<stop  offset="0.4614" style="stop-color:#5F5C5D"/>
				<stop  offset="0.5916" style="stop-color:#454142"/>
				<stop  offset="0.7234" style="stop-color:#322E2F"/>
				<stop  offset="0.8579" style="stop-color:#272324"/>
				<stop  offset="0.9993" style="stop-color:#231F20"/>
			</linearGradient>
			<path style="opacity:0.4;fill:url(#SVGID_00000071539903995565109150000004449284773554657191_);" d="M121.439,63.057
				l1.189,12.882l-84.134,8.229c0,0,1.158-4.766,8.109-8.551C53.554,71.831,121.439,63.057,121.439,63.057z"/>
			<path style="opacity:0.4;fill:#FFFFFF;" d="M110.318,53.645l-65.09,16.373c0,0,44.381-9.536,51.073-11.107
				C105.163,56.829,110.318,53.645,110.318,53.645z"/>
			
				<linearGradient id="SVGID_00000078039747004726833960000007293286141027551368_" gradientUnits="userSpaceOnUse" x1="357.9975" y1="38.0934" x2="357.9975" y2="144.4506">
				<stop  offset="0" style="stop-color:#FFFFFF"/>
				<stop  offset="0.0795" style="stop-color:#DCDBDC"/>
				<stop  offset="0.2044" style="stop-color:#ABAAAA"/>
				<stop  offset="0.3325" style="stop-color:#827F80"/>
				<stop  offset="0.4614" style="stop-color:#5F5C5D"/>
				<stop  offset="0.5916" style="stop-color:#454142"/>
				<stop  offset="0.7234" style="stop-color:#322E2F"/>
				<stop  offset="0.8579" style="stop-color:#272324"/>
				<stop  offset="0.9993" style="stop-color:#231F20"/>
			</linearGradient>
			<polygon style="opacity:0.4;fill:url(#SVGID_00000078039747004726833960000007293286141027551368_);" points="323.708,58.458 
				318.385,64.855 397.61,58.91 			"/>
			<g>
				<path style="fill:#363635;" d="M112.087,131.419c0,17.226-13.963,31.189-31.184,31.189c-17.225,0-31.186-13.963-31.186-31.189
					c0-17.222,13.96-31.187,31.186-31.187C98.124,100.232,112.087,114.197,112.087,131.419z"/>
				<path style="fill:#4F4E4D;" d="M112.087,131.396c0,17.227-13.963,31.189-31.184,31.189c-17.223,0-31.186-13.963-31.186-31.189
					c0-17.221,13.962-31.187,31.186-31.187C98.124,100.21,112.087,114.176,112.087,131.396z"/>
				<path style="fill:#2D2D2C;" d="M110.318,131.375c0,16.248-13.169,29.419-29.415,29.419s-29.416-13.171-29.416-29.419
					c0-16.243,13.171-29.416,29.416-29.416S110.318,115.132,110.318,131.375z"/>
				<g>
					<path style="fill:#909295;" d="M106.103,131.396c0,13.919-11.282,25.198-25.201,25.198c-13.913,0-25.197-11.279-25.197-25.198
						c0-13.915,11.284-25.196,25.197-25.196C94.821,106.2,106.103,117.481,106.103,131.396z"/>
					
						<linearGradient id="SVGID_00000147217730397768538380000012692137372280666797_" gradientUnits="userSpaceOnUse" x1="57.8999" y1="131.3979" x2="103.9086" y2="131.3979">
						<stop  offset="0" style="stop-color:#FFFFFF"/>
						<stop  offset="1" style="stop-color:#848689"/>
					</linearGradient>
					<path style="fill:url(#SVGID_00000147217730397768538380000012692137372280666797_);" d="M103.909,131.396
						c0,12.71-10.301,23.007-23.007,23.007c-12.705,0-23.001-10.297-23.001-23.007c0-12.706,10.297-23.004,23.001-23.004
						C93.608,108.393,103.909,118.69,103.909,131.396z"/>
					<g>
						<path style="fill:#151513;" d="M92.439,117.693c0.034-0.271,0.013-0.537-0.097-0.799c-2.45-2.202-5.608-3.625-9.096-3.896
							c-0.326,0.074-0.622,0.211-0.879,0.417c-0.121,0.173-0.22,0.356-0.309,0.555v12.794c0.068,0.173,0.15,0.331,0.256,0.49
							c0.068,0.036,0.142,0.074,0.218,0.108c0.21-0.021,0.415-0.06,0.612-0.128l9.177-9.184
							C92.369,117.934,92.409,117.815,92.439,117.693z"/>
						<path style="fill:#151513;" d="M99.166,130.327c0.218-0.166,0.389-0.373,0.493-0.633c-0.17-3.289-1.396-6.529-3.673-9.184
							c-0.282-0.179-0.593-0.293-0.921-0.331c-0.205,0.039-0.403,0.101-0.606,0.181l-9.046,9.046
							c-0.072,0.167-0.129,0.34-0.167,0.519c0.025,0.079,0.051,0.162,0.078,0.24c0.161,0.133,0.339,0.249,0.523,0.337h12.983
							C98.949,130.454,99.057,130.398,99.166,130.327z"/>
						<path style="fill:#151513;" d="M94.773,143.614c0.272,0.037,0.542,0.02,0.803-0.088c2.245-2.407,3.723-5.539,4.052-9.021
							c-0.064-0.328-0.197-0.628-0.401-0.89c-0.171-0.12-0.354-0.227-0.552-0.318l-12.789-0.221
							c-0.174,0.065-0.334,0.146-0.493,0.244c-0.038,0.073-0.08,0.148-0.11,0.223c0.009,0.207,0.051,0.415,0.115,0.609l9.016,9.34
							C94.535,143.541,94.654,143.584,94.773,143.614z"/>
						<path style="fill:#151513;" d="M82.368,149.311c0.167,0.216,0.376,0.387,0.637,0.485c3.287-0.218,6.512-1.494,9.13-3.805
							c0.178-0.284,0.29-0.596,0.318-0.928c-0.042-0.198-0.101-0.402-0.184-0.603l-9.179-8.92c-0.167-0.065-0.343-0.12-0.521-0.155
							c-0.082,0.025-0.155,0.054-0.239,0.084c-0.127,0.159-0.237,0.335-0.328,0.526l0.178,12.982
							C82.239,149.094,82.298,149.205,82.368,149.311z"/>
						<path style="fill:#151513;" d="M69.368,117.693c-0.038-0.271-0.01-0.537,0.097-0.799c2.45-2.202,5.611-3.625,9.098-3.896
							c0.324,0.074,0.623,0.211,0.883,0.417c0.115,0.173,0.214,0.356,0.301,0.555v12.794c-0.064,0.173-0.15,0.331-0.252,0.49
							c-0.07,0.036-0.147,0.074-0.225,0.108c-0.203-0.021-0.407-0.06-0.612-0.128l-9.173-9.184
							C69.436,117.934,69.396,117.815,69.368,117.693z"/>
						<path style="fill:#151513;" d="M62.642,130.327c-0.218-0.166-0.392-0.373-0.496-0.633c0.174-3.289,1.4-6.529,3.681-9.184
							c0.277-0.179,0.582-0.293,0.91-0.331c0.21,0.039,0.409,0.101,0.616,0.181l9.044,9.046c0.072,0.167,0.121,0.34,0.165,0.519
							c-0.021,0.079-0.049,0.162-0.08,0.24c-0.161,0.133-0.337,0.249-0.521,0.337H62.975
							C62.862,130.454,62.744,130.398,62.642,130.327z"/>
						<path style="fill:#151513;" d="M67.032,143.614c-0.273,0.037-0.54,0.02-0.803-0.088c-2.245-2.407-3.721-5.539-4.049-9.021
							c0.064-0.328,0.197-0.628,0.402-0.89c0.167-0.12,0.354-0.227,0.551-0.318l12.786-0.221c0.176,0.065,0.334,0.146,0.498,0.244
							c0.036,0.073,0.072,0.148,0.108,0.223c-0.014,0.207-0.055,0.415-0.116,0.609l-9.024,9.34
							C67.271,143.541,67.151,143.584,67.032,143.614z"/>
						<path style="fill:#151513;" d="M79.445,149.311c-0.176,0.216-0.379,0.387-0.641,0.485c-3.289-0.218-6.517-1.494-9.133-3.805
							c-0.18-0.284-0.286-0.596-0.32-0.928c0.046-0.198,0.104-0.402,0.188-0.603l9.179-8.92c0.165-0.065,0.341-0.12,0.519-0.155
							c0.082,0.025,0.157,0.054,0.239,0.084c0.132,0.159,0.239,0.335,0.33,0.526l-0.184,12.982
							C79.57,149.094,79.513,149.205,79.445,149.311z"/>
						<polygon style="fill:#151513;" points="80.934,131.605 80.934,131.605 80.934,131.605 						"/>
						<polygon style="fill:#151513;" points="80.934,131.605 80.934,131.605 80.934,131.605 						"/>
					</g>
					<path style="fill:#969792;" d="M87.661,131.396c0,3.733-3.023,6.76-6.76,6.76c-3.729,0-6.756-3.026-6.756-6.76
						c0-3.73,3.027-6.755,6.756-6.755C84.638,124.642,87.661,127.666,87.661,131.396z"/>
					<path style="fill:#C2C4C6;" d="M85.284,128.076c0,0.464-0.381,0.84-0.845,0.84c-0.468,0-0.843-0.376-0.843-0.84
						c0-0.467,0.375-0.842,0.843-0.842C84.903,127.234,85.284,127.609,85.284,128.076z"/>
					<path style="fill:#C2C4C6;" d="M81.771,126.874c0,0.465-0.371,0.839-0.838,0.839c-0.462,0-0.837-0.374-0.837-0.839
						c0-0.466,0.376-0.84,0.837-0.84C81.4,126.034,81.771,126.408,81.771,126.874z"/>
					<path style="fill:#C2C4C6;" d="M78.211,128.208c0,0.461-0.379,0.835-0.841,0.835c-0.466,0-0.845-0.374-0.845-0.835
						c0-0.468,0.379-0.846,0.845-0.846C77.832,127.362,78.211,127.74,78.211,128.208z"/>
					<path style="fill:#C2C4C6;" d="M85.284,135.432c0-0.466-0.381-0.845-0.845-0.845c-0.468,0-0.843,0.379-0.843,0.845
						c0,0.462,0.375,0.839,0.843,0.839C84.903,136.27,85.284,135.894,85.284,135.432z"/>
					<path style="fill:#C2C4C6;" d="M86.932,131.918c0-0.465-0.382-0.842-0.849-0.842c-0.462,0-0.837,0.377-0.837,0.842
						c0,0.463,0.375,0.837,0.837,0.837C86.549,132.755,86.932,132.381,86.932,131.918z"/>
					<path style="fill:#C2C4C6;" d="M76.561,131.918c0-0.465-0.375-0.842-0.839-0.842c-0.466,0-0.843,0.377-0.843,0.842
						c0,0.463,0.377,0.837,0.843,0.837C76.186,132.755,76.561,132.381,76.561,131.918z"/>
					<path style="fill:#C2C4C6;" d="M81.771,136.632c0-0.467-0.371-0.839-0.838-0.839c-0.462,0-0.837,0.372-0.837,0.839
						c0,0.465,0.376,0.84,0.837,0.84C81.4,137.472,81.771,137.097,81.771,136.632z"/>
					<path style="fill:#C2C4C6;" d="M78.211,135.3c0-0.462-0.379-0.84-0.841-0.84c-0.466,0-0.845,0.378-0.845,0.84
						c0,0.467,0.379,0.841,0.845,0.841C77.832,136.141,78.211,135.767,78.211,135.3z"/>
				</g>
			</g>
		</g>
		<g>
			<path style="fill:#363635;" d="M358.018,131.419c0,17.226-13.963,31.189-31.186,31.189c-17.221,0-31.182-13.963-31.182-31.189
				c0-17.222,13.961-31.187,31.182-31.187C344.056,100.232,358.018,114.197,358.018,131.419z"/>
			<path style="fill:#4F4E4D;" d="M358.018,131.396c0,17.227-13.961,31.189-31.184,31.189c-17.221,0-31.184-13.963-31.184-31.189
				c0-17.221,13.963-31.187,31.184-31.187C344.058,100.21,358.018,114.176,358.018,131.396z"/>
			<path style="fill:#2D2D2C;" d="M356.249,131.375c0,16.248-13.169,29.419-29.415,29.419c-16.246,0-29.415-13.171-29.415-29.419
				c0-16.243,13.169-29.416,29.415-29.416C343.08,101.959,356.249,115.132,356.249,131.375z"/>
			<g>
				<path style="fill:#909295;" d="M352.034,131.396c0,13.919-11.28,25.198-25.201,25.198c-13.912,0-25.197-11.279-25.197-25.198
					c0-13.915,11.286-25.196,25.197-25.196C340.753,106.2,352.034,117.481,352.034,131.396z"/>
				
					<linearGradient id="SVGID_00000003098468025318784570000016757482056818263205_" gradientUnits="userSpaceOnUse" x1="303.831" y1="131.3979" x2="349.8418" y2="131.3979">
					<stop  offset="0" style="stop-color:#FFFFFF"/>
					<stop  offset="1" style="stop-color:#848689"/>
				</linearGradient>
				<path style="fill:url(#SVGID_00000003098468025318784570000016757482056818263205_);" d="M349.842,131.396
					c0,12.71-10.301,23.007-23.009,23.007c-12.703,0-23.001-10.297-23.001-23.007c0-12.706,10.299-23.004,23.001-23.004
					C339.541,108.393,349.842,118.69,349.842,131.396z"/>
				<g>
					<path style="fill:#151513;" d="M338.368,117.693c0.038-0.271,0.015-0.537-0.095-0.799c-2.448-2.202-5.609-3.625-9.094-3.896
						c-0.328,0.074-0.623,0.211-0.879,0.417c-0.123,0.173-0.222,0.356-0.31,0.555v12.794c0.068,0.173,0.149,0.331,0.256,0.49
						c0.068,0.036,0.144,0.074,0.218,0.108c0.212-0.021,0.415-0.06,0.614-0.128l9.177-9.184
						C338.302,117.934,338.338,117.815,338.368,117.693z"/>
					<path style="fill:#151513;" d="M345.1,130.327c0.216-0.166,0.387-0.373,0.493-0.633c-0.17-3.289-1.396-6.529-3.674-9.184
						c-0.284-0.179-0.593-0.293-0.92-0.331c-0.205,0.039-0.406,0.101-0.606,0.181l-9.046,9.046c-0.072,0.167-0.129,0.34-0.168,0.519
						c0.026,0.079,0.053,0.162,0.08,0.24c0.161,0.133,0.337,0.249,0.521,0.337h12.983C344.882,130.454,344.99,130.398,345.1,130.327
						z"/>
					<path style="fill:#151513;" d="M340.706,143.614c0.271,0.037,0.54,0.02,0.802-0.088c2.245-2.407,3.723-5.539,4.054-9.021
						c-0.065-0.328-0.199-0.628-0.402-0.89c-0.17-0.12-0.354-0.227-0.553-0.318l-12.788-0.221c-0.174,0.065-0.335,0.146-0.494,0.244
						c-0.038,0.073-0.078,0.148-0.108,0.223c0.01,0.207,0.049,0.415,0.114,0.609l9.018,9.34
						C340.467,143.541,340.587,143.584,340.706,143.614z"/>
					<path style="fill:#151513;" d="M328.301,149.311c0.167,0.216,0.375,0.387,0.637,0.485c3.285-0.218,6.509-1.494,9.129-3.805
						c0.176-0.284,0.288-0.596,0.316-0.928c-0.042-0.198-0.098-0.402-0.184-0.603l-9.179-8.92c-0.165-0.065-0.343-0.12-0.519-0.155
						c-0.082,0.025-0.155,0.054-0.239,0.084c-0.129,0.159-0.238,0.335-0.33,0.526l0.18,12.982
						C328.172,149.094,328.229,149.205,328.301,149.311z"/>
					<path style="fill:#151513;" d="M315.3,117.693c-0.038-0.271-0.011-0.537,0.095-0.799c2.452-2.202,5.612-3.625,9.098-3.896
						c0.324,0.074,0.624,0.211,0.883,0.417c0.116,0.173,0.214,0.356,0.303,0.555v12.794c-0.065,0.173-0.149,0.331-0.252,0.49
						c-0.072,0.036-0.149,0.074-0.226,0.108c-0.203-0.021-0.407-0.06-0.612-0.128l-9.173-9.184
						C315.369,117.934,315.327,117.815,315.3,117.693z"/>
					<path style="fill:#151513;" d="M308.575,130.327c-0.218-0.166-0.392-0.373-0.496-0.633c0.174-3.289,1.398-6.529,3.679-9.184
						c0.276-0.179,0.583-0.293,0.909-0.331c0.212,0.039,0.409,0.101,0.618,0.181l9.042,9.046c0.072,0.167,0.124,0.34,0.165,0.519
						c-0.021,0.079-0.049,0.162-0.079,0.24c-0.159,0.133-0.337,0.249-0.519,0.337h-12.985
						C308.795,130.454,308.677,130.398,308.575,130.327z"/>
					<path style="fill:#151513;" d="M312.964,143.614c-0.272,0.037-0.542,0.02-0.803-0.088c-2.245-2.407-3.723-5.539-4.048-9.021
						c0.064-0.328,0.197-0.628,0.401-0.89c0.167-0.12,0.354-0.227,0.551-0.318l12.786-0.221c0.173,0.065,0.333,0.146,0.499,0.244
						c0.036,0.073,0.07,0.148,0.108,0.223c-0.015,0.207-0.055,0.415-0.117,0.609l-9.022,9.34
						C313.201,143.541,313.084,143.584,312.964,143.614z"/>
					<path style="fill:#151513;" d="M325.375,149.311c-0.174,0.216-0.377,0.387-0.64,0.485c-3.289-0.218-6.517-1.494-9.132-3.805
						c-0.182-0.284-0.286-0.596-0.32-0.928c0.043-0.198,0.102-0.402,0.186-0.603l9.177-8.92c0.169-0.065,0.345-0.12,0.523-0.155
						c0.08,0.025,0.156,0.054,0.237,0.084c0.133,0.159,0.239,0.335,0.33,0.526l-0.184,12.982
						C325.5,149.094,325.444,149.205,325.375,149.311z"/>
					<polygon style="fill:#151513;" points="326.867,131.605 326.867,131.605 326.867,131.605 					"/>
					<polygon style="fill:#151513;" points="326.867,131.605 326.867,131.605 326.867,131.605 					"/>
				</g>
				<path style="fill:#969792;" d="M333.592,131.396c0,3.733-3.024,6.76-6.76,6.76c-3.728,0-6.756-3.026-6.756-6.76
					c0-3.73,3.027-6.755,6.756-6.755C330.568,124.642,333.592,127.666,333.592,131.396z"/>
				<path style="fill:#C2C4C6;" d="M331.216,128.076c0,0.464-0.382,0.84-0.847,0.84c-0.468,0-0.843-0.376-0.843-0.84
					c0-0.467,0.375-0.842,0.843-0.842C330.834,127.234,331.216,127.609,331.216,128.076z"/>
				<path style="fill:#C2C4C6;" d="M327.706,126.874c0,0.465-0.375,0.839-0.839,0.839c-0.462,0-0.837-0.374-0.837-0.839
					c0-0.466,0.375-0.84,0.837-0.84C327.331,126.034,327.706,126.408,327.706,126.874z"/>
				<path style="fill:#C2C4C6;" d="M324.144,128.208c0,0.461-0.379,0.835-0.843,0.835c-0.466,0-0.843-0.374-0.843-0.835
					c0-0.468,0.377-0.846,0.843-0.846C323.765,127.362,324.144,127.74,324.144,128.208z"/>
				<path style="fill:#C2C4C6;" d="M331.216,135.432c0-0.466-0.382-0.845-0.847-0.845c-0.468,0-0.843,0.379-0.843,0.845
					c0,0.462,0.375,0.839,0.843,0.839C330.834,136.27,331.216,135.894,331.216,135.432z"/>
				<path style="fill:#C2C4C6;" d="M332.865,131.918c0-0.465-0.383-0.842-0.849-0.842c-0.464,0-0.839,0.377-0.839,0.842
					c0,0.463,0.375,0.837,0.839,0.837C332.482,132.755,332.865,132.381,332.865,131.918z"/>
				<path style="fill:#C2C4C6;" d="M322.492,131.918c0-0.465-0.375-0.842-0.837-0.842c-0.468,0-0.845,0.377-0.845,0.842
					c0,0.463,0.378,0.837,0.845,0.837C322.117,132.755,322.492,132.381,322.492,131.918z"/>
				<path style="fill:#C2C4C6;" d="M327.706,136.632c0-0.467-0.375-0.839-0.839-0.839c-0.462,0-0.837,0.372-0.837,0.839
					c0,0.465,0.375,0.84,0.837,0.84C327.331,137.472,327.706,137.097,327.706,136.632z"/>
				<path style="fill:#C2C4C6;" d="M324.144,135.3c0-0.462-0.379-0.84-0.843-0.84c-0.466,0-0.843,0.378-0.843,0.84
					c0,0.467,0.377,0.841,0.843,0.841C323.765,136.141,324.144,135.767,324.144,135.3z"/>
			</g>
		</g>
	</g>
	<g>
		<g>
			<g>
				<path style="fill:#231F20;" d="M222.984,7.906c0,0-46.126-0.837-62.995,12.257c-16.867,13.095-34.427,29.499-35.028,34.291
					c-0.603,4.793,5.041,66.524,5.041,66.524s0.606,6.245,5.341,5.691h134.572c0,0,6.523-0.251,8.609-4.492
					c3.473-7.066,2.607-6.947,41.958-61.815c0,0,2.294-2.524,3.622-6.828c0.947-3.061,1.228-9.552,1.228-9.552
					s0.392-5.59-3.251-9.105c-3.645-3.516-20.088-17.876-32.205-22.096C275.453,7.759,222.984,7.906,222.984,7.906z"/>
				<path style="fill:#373736;" d="M134.763,127.052c-4.467,0-5.1-5.979-5.106-6.04c-0.231-2.524-5.642-61.826-5.043-66.602
					c0.371-2.947,6.47-9.371,11.519-14.238c6.534-6.299,15.152-13.691,23.644-20.283c15.13-11.745,53.915-12.34,61.537-12.34
					c1.082,0,1.676,0.01,1.676,0.01h0.468c5.371,0,52.875,0.138,66.532,4.895c12.14,4.229,28.59,18.566,32.332,22.174
					c3.719,3.587,3.374,9.146,3.359,9.38c-0.011,0.258-0.295,6.562-1.243,9.631c-1.298,4.2-3.471,6.703-3.685,6.942
					c-36.976,51.557-38.433,54.564-41.333,60.551c-0.186,0.383-0.379,0.779-0.585,1.201c-2.152,4.376-8.629,4.675-8.906,4.685
					H135.364C135.159,127.04,134.958,127.052,134.763,127.052z M221.313,8.244c-7.582,0-46.159,0.587-61.11,12.194
					c-20.957,16.267-34.431,30.345-34.897,34.059c-0.591,4.701,4.986,65.833,5.043,66.449c0.006,0.053,0.578,5.411,4.415,5.411
					c0.174,0,0.356-0.013,0.54-0.033l0.039-0.002h134.572c0.049-0.002,6.328-0.295,8.296-4.298c0.207-0.42,0.397-0.815,0.582-1.198
					c2.919-6.021,4.382-9.044,41.405-60.666l0.027-0.031c0.022-0.025,2.26-2.524,3.548-6.696c0.92-2.983,1.211-9.401,1.212-9.466
					c0.004-0.063,0.336-5.481-3.147-8.84c-3.717-3.585-20.055-17.831-32.076-22.017c-13.552-4.721-60.945-4.858-66.305-4.858
					l-0.472,0.002C222.974,8.255,222.383,8.244,221.313,8.244z"/>
			</g>
			<path style="fill:#3B3C3C;" d="M216.431,8.797c0,0-30.004,1.447-42.631,6.61c-10.543,4.312-13.326,5.94-18.478,9.975
				c0,0-6.121,5.543-10.967,9.886c-4.844,4.343-19.906,18.4-16.429,18.901c3.475,0.502,193.725,0,193.725,0s1.298,0.095,1.529-1.815
				c0.233-1.912,1.705-10.231-0.688-14.278c-2.393-4.045-21.003-17.782-23.668-19.288c-2.664-1.505-9.7-5.704-16.246-6.574
				c-6.547-0.868-39.736-3.012-39.736-3.012L216.431,8.797z"/>
			
				<linearGradient id="SVGID_00000173878187842861764290000004793274225927851399_" gradientUnits="userSpaceOnUse" x1="208.9175" y1="-7.9527" x2="224.5566" y2="45.5678">
				<stop  offset="0" style="stop-color:#FFFFFF"/>
				<stop  offset="1" style="stop-color:#231F20"/>
			</linearGradient>
			<path style="opacity:0.3;fill:url(#SVGID_00000173878187842861764290000004793274225927851399_);" d="M179.288,40.115
				c35.619-5.992,72.089-7.979,108.157-6.348c11.174,0.505,22.361,1.285,33.506,2.435c-5.155-5.341-19.788-16.093-22.128-17.416
				c-2.664-1.505-9.7-5.704-16.246-6.574c-6.547-0.868-39.736-3.012-39.736-3.012l-26.412-0.404c0,0-30.004,1.447-42.631,6.61
				c-10.543,4.312-13.326,5.94-18.478,9.975c0,0-6.121,5.543-10.967,9.886c-4.056,3.637-15.27,14.081-16.774,17.678
				C144.408,47.226,161.758,43.065,179.288,40.115z"/>
			<path style="fill:#3B3C3C;" d="M322.492,38.075c-2.393-4.045-21.003-17.782-23.668-19.288c-2.664-1.505-9.7-5.704-16.246-6.574
				c-6.547-0.868-39.736-3.012-39.736-3.012l-26.412-0.404c0,0-30.004,1.447-42.631,6.61c-10.543,4.312-13.326,5.94-18.478,9.975
				c0,0-6.121,5.543-10.967,9.886c-4.844,4.343-19.906,18.4-16.429,18.901c3.475,0.502,193.725,0,193.725,0s1.298,0.095,1.529-1.815
				C323.413,50.441,324.885,42.122,322.492,38.075z M313.607,50.594c-0.212,1.734-1.389,1.646-1.389,1.646s-172.542,0.456-175.695,0
				c-3.152-0.453,10.507-13.202,14.9-17.141c4.394-3.938,9.946-8.967,9.946-8.967c4.674-3.66,7.196-5.136,16.759-9.046
				c11.451-4.684,38.662-5.996,38.662-5.996l23.955,0.368c0,0,30.1,1.942,36.038,2.731c5.935,0.789,12.316,4.598,14.734,5.963
				c2.417,1.365,19.294,13.825,21.465,17.493C315.153,41.313,313.817,48.86,313.607,50.594z"/>
			<g>
				<path style="fill:#272728;" d="M127.926,54.068c0.478,0.069,4.479,0.12,11.017,0.154l0.657-14.666
					C133.437,45.388,125.271,53.687,127.926,54.068z"/>
			</g>
			<g>
				<path style="fill:#272728;" d="M130.436,48.879c0.595,1.517,1.101,3.067,1.591,4.623c0.068,0.218,0.129,0.44,0.188,0.669
					c1.764,0.021,4.03,0.037,6.728,0.052l0.657-14.666C136.51,42.48,132.918,46.022,130.436,48.879z"/>
			</g>
			<path style="fill:#373736;" d="M139.911,40.423c-2.137,1.88-7.04,6.255-7.582,7.301c-0.695,1.344,0.926,5.826,2.027,7.003
				c0,0,0.578,0.654,1.506,0.887c0.608,0.152,4.219-0.563,6.624-1.071C142.18,49.741,141.337,45.019,139.911,40.423z"/>
			<path style="fill:#373736;" d="M139.911,40.423c-2.137,1.88-7.04,6.255-7.582,7.301c-0.695,1.344,0.926,5.826,2.027,7.003
				c0,0,0.578,0.654,1.506,0.887c0.608,0.152,4.219-0.563,6.624-1.071C142.18,49.741,141.337,45.019,139.911,40.423z"/>
			<path style="fill:#373736;" d="M134.695,46.342c1.815-1.545,3.725-2.993,5.667-4.382c-0.142-0.515-0.294-1.027-0.451-1.537
				c-2.137,1.88-7.04,6.255-7.582,7.301c-0.184,0.354-0.203,0.931-0.116,1.604C132.753,48.173,133.7,47.188,134.695,46.342z"/>
			<path style="opacity:0.5;fill:#373736;" d="M141.953,49.477c0.021,0.725,0.006,1.451-0.064,2.183
				c-0.147,1.518-1.682,1.777-2.94,1.928c-1.554,0.186-3.38,0.321-4.528-0.98c-1.055-1.195-1.786-2.692-2.249-4.226
				c-0.133,1.778,1.224,5.319,2.185,6.347c0,0,0.578,0.654,1.506,0.887c0.608,0.152,4.219-0.563,6.624-1.071
				C142.377,52.843,142.199,51.154,141.953,49.477z"/>
			<path style="fill:#363436;" d="M226.276,13.793l-4.344,40.473l9.996,0.044c0.936-21.655,1.717-40.425,1.717-40.425
				s-0.561-3.069,5.607-4.738l-18.081-0.277C221.171,8.869,226.104,9.217,226.276,13.793z"/>
			<path style="opacity:0.5;fill:#6E6C6D;" d="M322.492,55.286h-96.119c1.713-21.097,3.81-45.944,3.844-46.354l-0.693-0.059
				c-0.034,0.411-2.133,25.299-3.848,46.413H124.931v0.695h100.688c-1.085,13.386-2.004,25.116-2.122,27.906
				c-0.212,4.955-1.377,42.596-1.391,42.976l0.695,0.022c0.012-0.38,1.179-38.017,1.389-42.968
				c0.12-2.788,1.039-14.536,2.126-27.936h96.176V55.286z"/>
		</g>
		
			<linearGradient id="SVGID_00000081619358838087399910000000999155589023130280_" gradientUnits="userSpaceOnUse" x1="222.9675" y1="38.0982" x2="222.9675" y2="144.4362">
			<stop  offset="0" style="stop-color:#FFFFFF"/>
			<stop  offset="0.0795" style="stop-color:#DCDBDC"/>
			<stop  offset="0.2044" style="stop-color:#ABAAAA"/>
			<stop  offset="0.3325" style="stop-color:#827F80"/>
			<stop  offset="0.4614" style="stop-color:#5F5C5D"/>
			<stop  offset="0.5916" style="stop-color:#454142"/>
			<stop  offset="0.7234" style="stop-color:#322E2F"/>
			<stop  offset="0.8579" style="stop-color:#272324"/>
			<stop  offset="0.9993" style="stop-color:#231F20"/>
		</linearGradient>
		<polygon style="opacity:0.4;fill:url(#SVGID_00000081619358838087399910000000999155589023130280_);" points="127.982,62.585 
			129.413,75.938 312.813,65.084 317.953,58.91 		"/>
		<g>
			
				<linearGradient id="SVGID_00000106841884777736272400000000867798802494941097_" gradientUnits="userSpaceOnUse" x1="193.7187" y1="69.8584" x2="213.1547" y2="69.8584">
				<stop  offset="0" style="stop-color:#FFFFFF"/>
				<stop  offset="0.0795" style="stop-color:#DCDBDC"/>
				<stop  offset="0.2044" style="stop-color:#ABAAAA"/>
				<stop  offset="0.3325" style="stop-color:#827F80"/>
				<stop  offset="0.4614" style="stop-color:#5F5C5D"/>
				<stop  offset="0.5916" style="stop-color:#454142"/>
				<stop  offset="0.7234" style="stop-color:#322E2F"/>
				<stop  offset="0.8579" style="stop-color:#272324"/>
				<stop  offset="0.9993" style="stop-color:#231F20"/>
			</linearGradient>
			<path style="opacity:0.4;fill:url(#SVGID_00000106841884777736272400000000867798802494941097_);" d="M213.155,69.858
				c0,2.824-4.351,5.113-9.719,5.113c-5.365,0-9.717-2.289-9.717-5.113c0-2.823,4.352-5.113,9.717-5.113
				C208.803,64.745,213.155,67.035,213.155,69.858z"/>
			
				<linearGradient id="SVGID_00000162347474365610191980000017312741162492146818_" gradientUnits="userSpaceOnUse" x1="194.041" y1="70.0278" x2="212.833" y2="70.0278">
				<stop  offset="0" style="stop-color:#FFFFFF"/>
				<stop  offset="0.0795" style="stop-color:#DCDBDC"/>
				<stop  offset="0.2044" style="stop-color:#ABAAAA"/>
				<stop  offset="0.3325" style="stop-color:#827F80"/>
				<stop  offset="0.4614" style="stop-color:#5F5C5D"/>
				<stop  offset="0.5916" style="stop-color:#454142"/>
				<stop  offset="0.7234" style="stop-color:#322E2F"/>
				<stop  offset="0.8579" style="stop-color:#272324"/>
				<stop  offset="0.9993" style="stop-color:#231F20"/>
			</linearGradient>
			<path style="opacity:0.4;fill:url(#SVGID_00000162347474365610191980000017312741162492146818_);" d="M212.833,70.028
				c0,2.73-4.206,4.943-9.397,4.943c-5.187,0-9.395-2.213-9.395-4.943c0-2.73,4.208-4.944,9.395-4.944
				C208.627,65.084,212.833,67.298,212.833,70.028z"/>
			<g>
				<path style="fill:#231F20;" d="M215.506,69.74c0-1.454-5.318-2.078-11.882-2.078c-6.561,0-11.88,0.624-11.88,2.078
					c0,1.454,5.32,2.634,11.88,2.634C210.188,72.374,215.506,71.194,215.506,69.74z"/>
				<path style="fill:#231F20;" d="M197.173,68.674c2.773-0.247,5.549-0.342,8.332-0.357c2.887-0.016,5.79,0.052,8.664,0.331
					c-1.978-0.68-5.956-0.985-10.545-0.985c-6.233,0-11.342,0.563-11.837,1.866C193.503,68.947,195.376,68.833,197.173,68.674z"/>
				<path style="fill:#231F20;" d="M203.624,67.662c-6.561,0-11.88,0.624-11.88,2.078c0,1.454,5.32,2.634,11.88,2.634
					c6.564,0,11.882-1.18,11.882-2.634C215.506,68.286,210.188,67.662,203.624,67.662z M201.449,71.347
					c-4.869,0-8.815-0.874-8.815-1.953c0-1.08,3.946-1.542,8.815-1.542c4.871,0,8.815,0.462,8.815,1.542
					C210.264,70.473,206.319,71.347,201.449,71.347z"/>
				<path style="fill:#87898C;" d="M213.613,69.711c0,0.446-0.362,0.807-0.807,0.807c-0.447,0-0.807-0.36-0.807-0.807
					c0-0.446,0.36-0.807,0.807-0.807C213.251,68.904,213.613,69.265,213.613,69.711z"/>
			</g>
		</g>
		<g>
			
				<linearGradient id="SVGID_00000058557254676720920800000016977236921137073086_" gradientUnits="userSpaceOnUse" x1="288.2465" y1="69.8584" x2="307.6806" y2="69.8584">
				<stop  offset="0" style="stop-color:#FFFFFF"/>
				<stop  offset="0.0795" style="stop-color:#DCDBDC"/>
				<stop  offset="0.2044" style="stop-color:#ABAAAA"/>
				<stop  offset="0.3325" style="stop-color:#827F80"/>
				<stop  offset="0.4614" style="stop-color:#5F5C5D"/>
				<stop  offset="0.5916" style="stop-color:#454142"/>
				<stop  offset="0.7234" style="stop-color:#322E2F"/>
				<stop  offset="0.8579" style="stop-color:#272324"/>
				<stop  offset="0.9993" style="stop-color:#231F20"/>
			</linearGradient>
			<path style="opacity:0.4;fill:url(#SVGID_00000058557254676720920800000016977236921137073086_);" d="M307.681,69.858
				c0,2.824-4.35,5.113-9.717,5.113c-5.367,0-9.717-2.289-9.717-5.113c0-2.823,4.35-5.113,9.717-5.113
				C303.331,64.745,307.681,67.035,307.681,69.858z"/>
			
				<linearGradient id="SVGID_00000070827864560198187810000006452669578315445158_" gradientUnits="userSpaceOnUse" x1="288.5668" y1="70.0278" x2="307.3584" y2="70.0278">
				<stop  offset="0" style="stop-color:#FFFFFF"/>
				<stop  offset="0.0795" style="stop-color:#DCDBDC"/>
				<stop  offset="0.2044" style="stop-color:#ABAAAA"/>
				<stop  offset="0.3325" style="stop-color:#827F80"/>
				<stop  offset="0.4614" style="stop-color:#5F5C5D"/>
				<stop  offset="0.5916" style="stop-color:#454142"/>
				<stop  offset="0.7234" style="stop-color:#322E2F"/>
				<stop  offset="0.8579" style="stop-color:#272324"/>
				<stop  offset="0.9993" style="stop-color:#231F20"/>
			</linearGradient>
			<path style="opacity:0.4;fill:url(#SVGID_00000070827864560198187810000006452669578315445158_);" d="M307.358,70.028
				c0,2.73-4.206,4.943-9.395,4.943c-5.189,0-9.397-2.213-9.397-4.943c0-2.73,4.208-4.944,9.397-4.944
				C303.153,65.084,307.358,67.298,307.358,70.028z"/>
			<g>
				<path style="fill:#231F20;" d="M310.032,69.74c0-1.454-5.32-2.078-11.882-2.078c-6.561,0-11.881,0.624-11.881,2.078
					c0,1.454,5.32,2.634,11.881,2.634C304.712,72.374,310.032,71.194,310.032,69.74z"/>
				<path style="fill:#231F20;" d="M291.698,68.674c2.774-0.247,5.549-0.342,8.335-0.357c2.885-0.016,5.788,0.052,8.663,0.331
					c-1.98-0.68-5.958-0.985-10.547-0.985c-6.233,0-11.343,0.563-11.837,1.866C288.029,68.947,289.902,68.833,291.698,68.674z"/>
				<path style="fill:#231F20;" d="M298.149,67.662c-6.561,0-11.881,0.624-11.881,2.078c0,1.454,5.32,2.634,11.881,2.634
					c6.563,0,11.882-1.18,11.882-2.634C310.032,68.286,304.712,67.662,298.149,67.662z M295.976,71.347
					c-4.869,0-8.815-0.874-8.815-1.953c0-1.08,3.946-1.542,8.815-1.542c4.869,0,8.815,0.462,8.815,1.542
					C304.792,70.473,300.845,71.347,295.976,71.347z"/>
				<path style="fill:#87898C;" d="M308.139,69.711c0,0.446-0.362,0.807-0.807,0.807s-0.807-0.36-0.807-0.807
					c0-0.446,0.362-0.807,0.807-0.807S308.139,69.265,308.139,69.711z"/>
			</g>
		</g>
	</g>
</g>
</svg>
